<svg width="16" height="17" viewBox="0 0 16 17" fill="none" xmlns="http://www.w3.org/2000/svg">
<path id="Vector" d="M1.00003 0.991768C0.998572 0.85916 0.944494 0.732563 0.849694 0.639826C0.754895 0.547089 0.627138 0.49581 0.49453 0.497268C0.361922 0.498727 0.235325 0.552804 0.142588 0.647604C0.0498512 0.742404 -0.0014284 0.87016 3.02894e-05 1.00277V16.0028C3.02894e-05 16.1354 0.0527088 16.2626 0.146477 16.3563C0.240245 16.4501 0.367422 16.5028 0.50003 16.5028H15.5C15.6326 16.5028 15.7598 16.4501 15.8536 16.3563C15.9474 16.2626 16 16.1354 16 16.0028C16 15.8702 15.9474 15.743 15.8536 15.6492C15.7598 15.5554 15.6326 15.5028 15.5 15.5028H1.00003V0.991768ZM14 14.5028V4.00277C13.9999 3.90868 13.9732 3.81655 13.9231 3.73694C13.8729 3.65734 13.8013 3.5935 13.7165 3.55277C13.6317 3.51204 13.5371 3.49606 13.4436 3.50667C13.3501 3.51729 13.2616 3.55406 13.188 3.61277L8.45303 7.39977L5.24803 5.56877C5.18006 5.52998 5.10393 5.5077 5.02577 5.5037C4.94761 5.49971 4.86961 5.51412 4.79803 5.54577L2.00003 6.78877V14.5028H14Z" fill="white"/>
</svg>
