<svg width="19" height="19" viewBox="0 0 19 19" fill="none" xmlns="http://www.w3.org/2000/svg">
<path id="Vector" d="M0 15.1155V18.1555C0 18.4355 0.22 18.6555 0.5 18.6555H3.54C3.67 18.6555 3.8 18.6055 3.89 18.5055L14.81 7.59546L11.06 3.84546L0.15 14.7555C0.0500001 14.8555 0 14.9755 0 15.1155ZM17.71 4.69546C17.8027 4.60295 17.8763 4.49306 17.9264 4.37208C17.9766 4.25111 18.0024 4.12143 18.0024 3.99046C18.0024 3.85949 17.9766 3.72981 17.9264 3.60883C17.8763 3.48786 17.8027 3.37797 17.71 3.28546L15.37 0.945459C15.2775 0.852756 15.1676 0.779208 15.0466 0.729027C14.9257 0.678845 14.796 0.653015 14.665 0.653015C14.534 0.653015 14.4043 0.678845 14.2834 0.729027C14.1624 0.779208 14.0525 0.852756 13.96 0.945459L12.13 2.77546L15.88 6.52546L17.71 4.69546Z" fill="white"/>
</svg>
