<svg width="30" height="30" viewBox="0 0 30 30" fill="none" xmlns="http://www.w3.org/2000/svg">
<path id="Vector" d="M27.0175 17.9H29.9175V20.8H27.0175C25.0165 20.8 23.0445 20.2925 21.2175 19.35C17.5925 21.235 13.2425 21.235 9.61748 19.35C7.79048 20.2925 5.80398 20.8 3.81748 20.8H0.91748V17.9H3.81748C5.83298 17.9 7.84848 17.2185 9.61748 15.9715C13.1555 18.451 17.6795 18.451 21.2175 15.9715C22.9865 17.2185 25.002 17.9 27.0175 17.9ZM27.0175 26.6H29.9175V29.5H27.0175C25.0165 29.5 23.0445 28.9925 21.2175 28.05C17.5925 29.935 13.2425 29.935 9.61748 28.05C7.79048 28.9925 5.80398 29.5 3.81748 29.5H0.91748V26.6H3.81748C5.83298 26.6 7.84848 25.9185 9.61748 24.6715C13.1555 27.151 17.6795 27.151 21.2175 24.6715C22.9865 25.9185 25.002 26.6 27.0175 26.6ZM8.16748 0.5L2.36748 6.3H6.71748V13.55H9.61748V6.3H13.9675M22.6675 0.5L16.8675 6.3H21.2175V13.55H24.1175V6.3H28.4675" fill="black"/>
</svg>
