<svg width="20" height="19" viewBox="0 0 20 19" fill="none" xmlns="http://www.w3.org/2000/svg">
<path id="Vector" fill-rule="evenodd" clip-rule="evenodd" d="M18 0.5C18.5304 0.5 19.0391 0.710714 19.4142 1.08579C19.7893 1.46086 20 1.96957 20 2.5V16.5C20 17.0304 19.7893 17.5391 19.4142 17.9142C19.0391 18.2893 18.5304 18.5 18 18.5H2C1.46957 18.5 0.960859 18.2893 0.585786 17.9142C0.210714 17.5391 0 17.0304 0 16.5V2.5C0 1.96957 0.210714 1.46086 0.585786 1.08579C0.960859 0.710714 1.46957 0.5 2 0.5H18ZM18 2.5H2V16.5H18V2.5ZM15 12.5C15.2549 12.5003 15.5 12.5979 15.6854 12.7728C15.8707 12.9478 15.9822 13.187 15.9972 13.4414C16.0121 13.6958 15.9293 13.9464 15.7657 14.1418C15.6021 14.3373 15.3701 14.4629 15.117 14.493L15 14.5H5C4.74512 14.4997 4.49997 14.4021 4.31463 14.2272C4.1293 14.0522 4.01777 13.813 4.00283 13.5586C3.98789 13.3042 4.07067 13.0536 4.23426 12.8582C4.39786 12.6627 4.6299 12.5371 4.883 12.507L5 12.5H15ZM8 4.5C8.53043 4.5 9.03914 4.71071 9.41421 5.08579C9.78929 5.46086 10 5.96957 10 6.5V8.5C10 9.03043 9.78929 9.53914 9.41421 9.91421C9.03914 10.2893 8.53043 10.5 8 10.5H6C5.46957 10.5 4.96086 10.2893 4.58579 9.91421C4.21071 9.53914 4 9.03043 4 8.5V6.5C4 5.96957 4.21071 5.46086 4.58579 5.08579C4.96086 4.71071 5.46957 4.5 6 4.5H8ZM15 8.5C15.2652 8.5 15.5196 8.60536 15.7071 8.79289C15.8946 8.98043 16 9.23478 16 9.5C16 9.76522 15.8946 10.0196 15.7071 10.2071C15.5196 10.3946 15.2652 10.5 15 10.5H12C11.7348 10.5 11.4804 10.3946 11.2929 10.2071C11.1054 10.0196 11 9.76522 11 9.5C11 9.23478 11.1054 8.98043 11.2929 8.79289C11.4804 8.60536 11.7348 8.5 12 8.5H15ZM8 6.5H6V8.5H8V6.5ZM15 4.5C15.2549 4.50028 15.5 4.59788 15.6854 4.77285C15.8707 4.94782 15.9822 5.18695 15.9972 5.44139C16.0121 5.69584 15.9293 5.94638 15.7657 6.14183C15.6021 6.33729 15.3701 6.4629 15.117 6.493L15 6.5H12C11.7451 6.49972 11.5 6.40212 11.3146 6.22715C11.1293 6.05218 11.0178 5.81305 11.0028 5.55861C10.9879 5.30416 11.0707 5.05362 11.2343 4.85817C11.3979 4.66271 11.6299 4.5371 11.883 4.507L12 4.5H15Z" fill="white"/>
</svg>
