<svg width="28" height="28" viewBox="0 0 28 28" fill="none" xmlns="http://www.w3.org/2000/svg">
<path id="Vector" d="M21.4588 19.9866H6.45884C4.85525 19.9764 3.31201 19.3738 2.12583 18.2947C0.939647 17.2155 0.19426 15.7359 0.0329734 14.1404C-0.128313 12.545 0.305887 10.9461 1.2521 9.65142C2.1983 8.3567 3.58972 7.45745 5.15884 7.12657C5.59055 5.11309 6.69968 3.30854 8.30116 2.01404C9.90263 0.719534 11.8996 0.0133667 13.9588 0.0133667C16.0181 0.0133667 18.0151 0.719534 19.6165 2.01404C21.218 3.30854 22.3271 5.11309 22.7588 7.12657C24.328 7.45745 25.7194 8.3567 26.6656 9.65142C27.6118 10.9461 28.046 12.545 27.8847 14.1404C27.7234 15.7359 26.978 17.2155 25.7919 18.2947C24.6057 19.3738 23.0624 19.9764 21.4588 19.9866ZM13.9588 1.98657C12.2525 1.98827 10.6055 2.6132 9.32747 3.74388C8.04947 4.87456 7.22848 6.43312 7.01884 8.12657L6.95884 8.98657H6.09884C4.90537 9.03431 3.77974 9.5542 2.96958 10.4319C2.15943 11.3095 1.7311 12.4731 1.77884 13.6666C1.82658 14.86 2.34647 15.9857 3.22414 16.7958C4.10181 17.606 5.26537 18.0343 6.45884 17.9866H21.4588C22.6523 18.0343 23.8159 17.606 24.6935 16.7958C25.5712 15.9857 26.0911 14.86 26.1388 13.6666C26.1866 12.4731 25.7583 11.3095 24.9481 10.4319C24.1379 9.5542 23.0123 9.03431 21.8188 8.98657H20.9588L20.8588 8.16657C20.6591 6.47268 19.8478 4.91001 18.5772 3.77206C17.3067 2.63411 15.6644 1.9992 13.9588 1.98657ZM11.9588 27.9866C11.802 27.9884 11.6472 27.9506 11.5088 27.8766C11.2733 27.7567 11.0948 27.5484 11.0124 27.2973C10.9299 27.0463 10.9502 26.7727 11.0688 26.5366L13.0688 22.5366C13.1217 22.4096 13.2002 22.2949 13.2994 22.1997C13.3986 22.1045 13.5163 22.0307 13.6453 21.983C13.7743 21.9353 13.9117 21.9148 14.049 21.9226C14.1863 21.9305 14.3205 21.9665 14.4432 22.0286C14.5659 22.0906 14.6745 22.1773 14.7622 22.2832C14.8499 22.3892 14.9149 22.512 14.9529 22.6442C14.991 22.7763 15.0014 22.9149 14.9835 23.0512C14.9656 23.1876 14.9197 23.3187 14.8488 23.4366L12.8488 27.4366C12.7657 27.6015 12.6386 27.7402 12.4815 27.8372C12.3244 27.9343 12.1435 27.986 11.9588 27.9866ZM17.9588 27.9866C17.802 27.9884 17.6472 27.9506 17.5088 27.8766C17.2733 27.7567 17.0948 27.5484 17.0124 27.2973C16.9299 27.0463 16.9502 26.7727 17.0688 26.5366L19.0688 22.5366C19.1217 22.4096 19.2002 22.2949 19.2994 22.1997C19.3986 22.1045 19.5163 22.0307 19.6453 21.983C19.7743 21.9353 19.9117 21.9148 20.049 21.9226C20.1863 21.9305 20.3205 21.9665 20.4432 22.0286C20.5659 22.0906 20.6745 22.1773 20.7622 22.2832C20.8499 22.3892 20.9149 22.512 20.9529 22.6442C20.991 22.7763 21.0014 22.9149 20.9835 23.0512C20.9656 23.1876 20.9197 23.3187 20.8488 23.4366L18.8488 27.4366C18.7657 27.6015 18.6386 27.7402 18.4815 27.8372C18.3244 27.9343 18.1435 27.986 17.9588 27.9866ZM5.95884 27.9866C5.80197 27.9884 5.64716 27.9506 5.50884 27.8766C5.27332 27.7567 5.09483 27.5484 5.01238 27.2973C4.92993 27.0463 4.95023 26.7727 5.06884 26.5366L7.06884 22.5366C7.12171 22.4096 7.20018 22.2949 7.29937 22.1997C7.39856 22.1045 7.51632 22.0307 7.64531 21.983C7.77429 21.9353 7.91172 21.9148 8.04901 21.9226C8.1863 21.9305 8.3205 21.9665 8.44322 22.0286C8.56594 22.0906 8.67454 22.1773 8.76224 22.2832C8.84994 22.3892 8.91485 22.512 8.95292 22.6442C8.99099 22.7763 9.00139 22.9149 8.98348 23.0512C8.96558 23.1876 8.91974 23.3187 8.84884 23.4366L6.84884 27.4366C6.76574 27.6015 6.6386 27.7402 6.48151 27.8372C6.32442 27.9343 6.14351 27.986 5.95884 27.9866Z" fill="black"/>
</svg>
