<svg width="37" height="28" viewBox="0 0 37 28" fill="none" xmlns="http://www.w3.org/2000/svg">
<path id="Oveja" d="M7.96353 1.47607C7.26174 1.87523 6.01662 2.17649 4.94507 2.16896C4.36402 2.16142 3.84333 2.07858 3.47357 1.92795C3.09626 1.79239 2.95289 1.55891 2.80196 1.26519C3.49621 0.80728 4.46966 0.341087 5.20164 0.295898C6.32601 0.335815 7.37493 0.908201 7.96353 1.47607ZM27.0553 2.99741C27.1836 3.41164 27.6514 3.60745 28.0363 3.40411C30.036 2.31205 31.8441 2.88444 33.1458 4.05934C35.8571 6.51457 36.5513 10.6342 35.596 15.0326C35.0444 17.5631 34.163 19.0242 32.4802 19.7623C32.4802 19.7698 32.4727 19.7698 32.4689 19.7698C32.3014 19.8451 32.1512 19.9129 32.0093 19.9807L31.6614 18.3238C31.5845 17.9548 31.2238 17.7213 30.857 17.7966C30.4903 17.8719 30.2548 18.2334 30.3318 18.6025L32.1052 27.0376C31.7437 27.5799 30.8676 27.128 30.4978 26.9472L27.6212 18.9263C26.8063 18.2184 26.0215 17.4953 25.4555 16.7271C24.9574 16.0418 24.6707 15.3414 24.6556 14.9573C24.6405 14.5807 24.3236 14.287 23.9463 14.302C23.569 14.3171 23.2671 14.6485 23.2973 15.025C23.3426 15.8686 23.7652 16.7121 24.3538 17.5255C24.9046 18.2786 25.614 19.0016 26.4063 19.574L26.6553 20.2443C26.1346 20.8995 25.6441 21.2836 25.1763 21.5096C24.5122 21.8184 23.8406 21.856 23.0256 21.7581C21.7881 21.615 20.4147 20.7866 19.7431 18.9564C19.5318 18.3765 18.7168 18.3539 18.4753 18.9188C17.8943 20.5154 15.7511 21.374 14.3174 20.7263L14.6117 18.9715C14.672 18.6025 14.423 18.2485 14.0533 18.1882C13.6835 18.1204 13.3288 18.3765 13.2685 18.7456L11.9403 26.7213C11.2461 27.1958 10.8462 26.9021 10.4387 26.3899L11.48 17.774C11.5329 17.3748 11.231 17.0209 10.8311 17.0058C10.4688 16.9907 10.167 17.2543 10.1293 17.6083L9.80479 20.297C9.41993 20.2066 9.11809 20.1087 8.86906 19.9205C8.54458 19.6794 8.22764 19.2652 7.95598 18.3012C7.8277 17.8493 7.27683 17.661 6.89197 17.9472C5.8657 18.5723 4.82433 17.8117 4.20555 17.0284C3.23209 15.7857 3.09626 13.8351 3.20946 11.8167C3.36792 11.8393 3.52639 11.8543 3.68486 11.8619C4.34892 11.8995 5.03562 11.7941 5.62422 11.5305C6.55994 11.0033 7.28437 10.1447 7.75223 9.35391C8.04653 8.84177 8.3031 8.32211 8.54458 7.84763C8.95207 8.59324 9.37466 9.58738 9.99344 9.73048C10.9367 9.88864 11.797 9.45181 12.2422 8.77399C12.6874 8.10369 12.8006 7.25265 12.6044 6.43173C12.4007 5.55055 11.8649 3.5472 10.899 2.20661C10.733 1.9882 10.5594 1.80745 10.3858 1.64929C10.9518 1.41582 11.6083 1.3631 12.1139 1.3631C12.5516 1.3631 13.1326 1.49866 13.6005 1.73967C14.0684 1.9882 14.4079 2.32712 14.5211 2.62837C14.7626 3.26854 15.6908 3.19323 15.8266 2.53046C16.1134 0.814811 19.894 1.18987 20.7769 2.68109C21.0636 3.20829 21.8409 3.12544 22.022 2.55306C22.6332 0.850209 26.7534 0.94887 27.0553 2.99741ZM1.02107 2.88444C0.892789 4.11959 0.756958 5.30955 0.704135 6.31875C0.568304 6.8083 0.251365 7.74219 0.0476191 6.86855C-0.0202962 6.55976 -0.0127483 6.04009 0.0778055 5.46771C0.0853516 4.93298 1.172 1.90536 1.02107 2.88444ZM9.52558 2.69615C10.4236 3.82586 10.9744 5.5129 11.2838 6.74051C11.3291 7.17733 11.3291 7.68947 11.1103 8.02838C10.9367 8.28445 10.7481 8.42001 10.4009 8.40495C9.96326 7.697 9.48785 6.91374 9.22373 6.2811C9.31429 5.68612 9.43502 4.78235 9.49539 3.91624C9.52558 3.47942 9.54067 3.07272 9.52558 2.69615ZM2.40202 2.87691C2.58312 2.99741 2.76423 3.11038 2.96798 3.18569C3.55658 3.4267 4.23573 3.51708 4.92998 3.52461C6.04681 3.53214 7.20891 3.32126 8.16727 2.89197C8.16727 3.1631 8.15973 3.47189 8.13709 3.81833C8.06917 4.76729 7.9107 5.86687 7.83524 6.34135C7.0429 7.59156 6.33356 9.68529 5.05826 10.2953C4.62059 10.446 4.16027 10.5288 3.76032 10.5137C3.30755 10.4836 2.96043 10.3179 2.89252 10.2351C2.6284 9.63257 2.4473 9.09031 2.34165 8.55558C2.18318 7.73466 2.08508 6.80076 2.06999 6.17566C2.04735 5.69365 2.11526 5.17398 2.153 4.76729C2.25864 5.07607 2.58313 5.26436 2.90761 5.21164C3.23209 5.15892 3.47357 4.88026 3.47357 4.54888C3.47357 4.16478 3.15663 3.85599 2.77178 3.87105C2.54539 3.87105 2.3341 3.99909 2.21336 4.1949C2.28128 3.73549 2.31901 3.29113 2.40202 2.87691ZM6.80142 4.11959C6.43166 4.13465 6.14491 4.43591 6.14491 4.79741C6.14491 5.17398 6.44675 5.47524 6.82406 5.47524C7.19382 5.47524 7.50321 5.17398 7.50321 4.79741C7.50321 4.42084 7.18627 4.11206 6.80142 4.11959ZM3.217 7.75725C2.93779 7.74972 2.7265 7.90035 2.7265 8.2242C2.7265 8.81165 3.16418 9.35391 3.68486 9.65516L3.76032 7.91541C3.57167 7.80997 3.38302 7.75725 3.217 7.75725ZM5.03562 7.90788C4.89979 7.90035 4.74132 7.938 4.59795 8.00579L4.31119 9.70035C4.76396 9.42169 5.4733 9.42922 5.55631 8.4878C5.59404 8.09616 5.34501 7.90788 5.03562 7.90788ZM7.36738 20.2744C7.64659 20.6585 7.94089 20.9598 8.31819 21.1857L7.06553 25.8552C6.49203 25.9682 5.8657 25.9305 5.61668 25.4711L7.36738 20.2744ZM25.5687 22.8125L25.4555 26.3372C24.8593 26.9322 24.482 26.6987 23.9689 26.1113L24.2481 23.1364C24.7235 23.0686 25.1989 22.9707 25.5687 22.8125Z" fill="black"/>
</svg>
