<svg width="14" height="14" viewBox="0 0 14 14" fill="none" xmlns="http://www.w3.org/2000/svg">
<path id="Vector" d="M4.2 6.3C4.39833 6.3 4.5647 6.2328 4.6991 6.0984C4.8335 5.964 4.90047 5.79787 4.9 5.6C4.9 5.40167 4.8328 5.2353 4.6984 5.1009C4.564 4.9665 4.39787 4.89953 4.2 4.9C4.00167 4.9 3.8353 4.9672 3.7009 5.1016C3.5665 5.236 3.49953 5.40213 3.5 5.6C3.5 5.79833 3.5672 5.9647 3.7016 6.0991C3.836 6.2335 4.00213 6.30047 4.2 6.3ZM7 6.3C7.19833 6.3 7.3647 6.2328 7.4991 6.0984C7.6335 5.964 7.70047 5.79787 7.7 5.6C7.7 5.40167 7.6328 5.2353 7.4984 5.1009C7.364 4.9665 7.19787 4.89953 7 4.9C6.80167 4.9 6.6353 4.9672 6.5009 5.1016C6.3665 5.236 6.29953 5.40213 6.3 5.6C6.3 5.79833 6.3672 5.9647 6.5016 6.0991C6.636 6.2335 6.80213 6.30047 7 6.3ZM9.8 6.3C9.99833 6.3 10.1647 6.2328 10.2991 6.0984C10.4335 5.964 10.5005 5.79787 10.5 5.6C10.5 5.40167 10.4328 5.2353 10.2984 5.1009C10.164 4.9665 9.99787 4.89953 9.8 4.9C9.60167 4.9 9.4353 4.9672 9.3009 5.1016C9.1665 5.236 9.09953 5.40213 9.1 5.6C9.1 5.79833 9.1672 5.9647 9.3016 6.0991C9.436 6.2335 9.60213 6.30047 9.8 6.3ZM0 14V1.4C0 1.015 0.1372 0.685301 0.4116 0.410901C0.686 0.136501 1.01547 -0.000465478 1.4 1.18846e-06H12.6C12.985 1.18846e-06 13.3147 0.137201 13.5891 0.411601C13.8635 0.686001 14.0005 1.01547 14 1.4V9.8C14 10.185 13.8628 10.5147 13.5884 10.7891C13.314 11.0635 12.9845 11.2005 12.6 11.2H2.8L0 14Z" fill="black"/>
</svg>
