<svg width="21" height="14" viewBox="0 0 21 14" fill="none" xmlns="http://www.w3.org/2000/svg">
<path id="Vector" d="M3.99844 4C5.41144 4 6.15844 3.253 6.70344 2.707C7.19344 2.217 7.43444 2 7.99544 2C8.55644 2 8.79744 2.217 9.28744 2.707C9.83244 3.253 10.5794 4 11.9934 4C13.4084 4 14.1564 3.253 14.7034 2.707C15.1944 2.217 15.4354 2 15.9984 2C16.5614 2 16.8024 2.217 17.2934 2.707C17.8394 3.253 18.5874 4 20.0024 4V2C19.4394 2 19.1984 1.783 18.7074 1.293C18.1614 0.747 17.4134 0 15.9984 0C14.5834 0 13.8364 0.747 13.2894 1.292C12.7984 1.783 12.5584 2 11.9934 2C11.4314 2 11.1914 1.783 10.7014 1.293C10.1564 0.747 9.40944 0 7.99544 0C6.58144 0 5.83444 0.747 5.28944 1.293C4.79944 1.783 4.55944 2 3.99844 2C3.43744 2 3.19744 1.783 2.70744 1.293C2.16244 0.747 1.41544 0 0.00244141 0V2C0.563441 2 0.803441 2.217 1.29344 2.707C1.83844 3.253 2.58544 4 3.99844 4ZM3.99844 9C5.41144 9 6.15844 8.253 6.70344 7.707C7.19344 7.217 7.43444 7 7.99544 7C8.55644 7 8.79744 7.217 9.28744 7.707C9.83244 8.253 10.5794 9 11.9934 9C13.4084 9 14.1564 8.253 14.7034 7.707C15.1944 7.217 15.4354 7 15.9984 7C16.5614 7 16.8024 7.217 17.2934 7.707C17.8394 8.253 18.5874 9 20.0024 9V7C19.4394 7 19.1984 6.783 18.7074 6.293C18.1614 5.747 17.4134 5 15.9984 5C14.5834 5 13.8364 5.747 13.2894 6.292C12.7984 6.783 12.5584 7 11.9934 7C11.4314 7 11.1914 6.783 10.7014 6.293C10.1564 5.747 9.40944 5 7.99544 5C6.58144 5 5.83444 5.747 5.28944 6.293C4.79944 6.783 4.55944 7 3.99844 7C3.43744 7 3.19744 6.783 2.70744 6.293C2.16244 5.747 1.41544 5 0.00244141 5V7C0.563441 7 0.803441 7.217 1.29344 7.707C1.83844 8.253 2.58544 9 3.99844 9ZM3.99844 14C5.41144 14 6.15844 13.253 6.70344 12.707C7.19344 12.217 7.43444 12 7.99544 12C8.55644 12 8.79744 12.217 9.28744 12.707C9.83244 13.253 10.5794 14 11.9934 14C13.4084 14 14.1564 13.253 14.7034 12.707C15.1944 12.217 15.4354 12 15.9984 12C16.5614 12 16.8024 12.217 17.2934 12.707C17.8394 13.253 18.5874 14 20.0024 14V12C19.4394 12 19.1984 11.783 18.7074 11.293C18.1614 10.747 17.4134 10 15.9984 10C14.5834 10 13.8364 10.747 13.2894 11.292C12.7984 11.783 12.5584 12 11.9934 12C11.4314 12 11.1914 11.783 10.7014 11.293C10.1564 10.747 9.40944 10 7.99544 10C6.58144 10 5.83444 10.747 5.28944 11.293C4.79944 11.783 4.55944 12 3.99844 12C3.43744 12 3.19744 11.783 2.70744 11.293C2.16244 10.747 1.41544 10 0.00244141 10V12C0.563441 12 0.803441 12.217 1.29344 12.707C1.83844 13.253 2.58544 14 3.99844 14Z" fill="#448FB9"/>
</svg>
