<svg width="30" height="30" viewBox="0 0 30 30" fill="none" xmlns="http://www.w3.org/2000/svg">
<path id="Vector" d="M5.62439 6.56343C5.62439 5.01086 6.88402 3.75124 8.43658 3.75124C9.98915 3.75124 11.2488 5.01086 11.2488 6.56343V16.201C11.2488 17.2146 11.6647 18.07 12.1452 18.691C12.7603 19.4878 13.1236 20.4779 13.1236 21.5618C13.1236 24.1513 11.0261 26.2488 8.43658 26.2488C5.84702 26.2488 3.74959 24.1513 3.74959 21.5618C3.74959 20.4779 4.11283 19.4878 4.728 18.6969C5.20842 18.0758 5.62439 17.2205 5.62439 16.2069V6.56343ZM8.43658 0.00164795C4.81002 0.00164795 1.8748 2.93687 1.8748 6.56343V16.1952C1.8748 16.201 1.86894 16.2128 1.86308 16.2303C1.85136 16.2655 1.81621 16.3241 1.76348 16.3944C0.656179 17.8239 0 19.6167 0 21.5618C0 26.2195 3.77889 29.9984 8.43658 29.9984C13.0943 29.9984 16.8732 26.2195 16.8732 21.5618C16.8732 19.6167 16.217 17.8239 15.1097 16.4002C15.057 16.3299 15.0218 16.2713 15.0101 16.2362C15.0042 16.2186 14.9984 16.2069 14.9984 16.201V6.56343C14.9984 2.93687 12.0631 0.00164795 8.43658 0.00164795ZM8.43658 24.374C9.98915 24.374 11.2488 23.1143 11.2488 21.5618C11.2488 20.3373 10.4637 19.2945 9.37398 18.9078V6.56343C9.37398 6.04786 8.95215 5.62603 8.43658 5.62603C7.92101 5.62603 7.49918 6.04786 7.49918 6.56343V18.9078C6.40946 19.2945 5.62439 20.3373 5.62439 21.5618C5.62439 23.1143 6.88402 24.374 8.43658 24.374ZM26.2471 9.37562H28.1219C28.8777 9.37562 29.5632 8.91864 29.8561 8.21559C30.1491 7.51254 29.985 6.7099 29.4519 6.17089L25.7023 2.4213C24.9699 1.68896 23.7806 1.68896 23.0483 2.4213L19.2987 6.17089C18.7597 6.7099 18.6015 7.51254 18.8944 8.21559C19.1874 8.91864 19.867 9.37562 20.6286 9.37562H22.5034V26.2488C22.5034 27.2858 23.3412 28.1236 24.3782 28.1236C25.4152 28.1236 26.253 27.2858 26.253 26.2488V9.37562H26.2471Z" fill="black"/>
</svg>
