<svg width="30" height="32" viewBox="0 0 30 32" fill="none" xmlns="http://www.w3.org/2000/svg">
<path id="Vector" d="M5.62634 7.56048C5.62634 6.00738 6.88641 4.74731 8.43951 4.74731C9.99262 4.74731 11.2527 6.00738 11.2527 7.56048V17.2015C11.2527 18.2154 11.6688 19.071 12.1494 19.6923C12.7648 20.4893 13.1281 21.4798 13.1281 22.5641C13.1281 25.1545 11.03 27.2527 8.43951 27.2527C5.84905 27.2527 3.7509 25.1545 3.7509 22.5641C3.7509 21.4798 4.11426 20.4893 4.72964 19.6981C5.21023 19.0769 5.62634 18.2212 5.62634 17.2073V7.56048ZM8.43951 0.996414C4.8117 0.996414 1.87545 3.93266 1.87545 7.56048V17.1956C1.87545 17.2015 1.86959 17.2132 1.86373 17.2308C1.852 17.2659 1.81684 17.3245 1.76409 17.3949C0.656407 18.8249 0 20.6183 0 22.5641C0 27.2234 3.7802 31.0036 8.43951 31.0036C13.0988 31.0036 16.879 27.2234 16.879 22.5641C16.879 20.6183 16.2226 18.8249 15.1149 17.4007C15.0622 17.3304 15.027 17.2718 15.0153 17.2366C15.0094 17.219 15.0036 17.2073 15.0036 17.2015V7.56048C15.0036 3.93266 12.0673 0.996414 8.43951 0.996414ZM8.43951 25.3772C9.99262 25.3772 11.2527 24.1172 11.2527 22.5641C11.2527 21.3392 10.4673 20.2959 9.37724 19.9091V16.9377C9.37724 16.422 8.95526 16 8.43951 16C7.92377 16 7.50179 16.422 7.50179 16.9377V19.9091C6.41169 20.2959 5.62634 21.3392 5.62634 22.5641C5.62634 24.1172 6.88641 25.3772 8.43951 25.3772ZM28.1317 21.6263H26.2563V4.74731C26.2563 3.70995 25.4182 2.87186 24.3808 2.87186C23.3435 2.87186 22.5054 3.70995 22.5054 4.74731V21.6263H20.6299C19.8739 21.6263 19.1882 22.0835 18.8951 22.7868C18.6021 23.4901 18.7662 24.293 19.2995 24.8322L23.0504 28.5831C23.4021 28.9347 23.8768 29.134 24.375 29.134C24.8731 29.134 25.3478 28.9347 25.6995 28.5831L29.4504 24.8322C29.9896 24.293 30.1478 23.4901 29.8548 22.7868C29.5617 22.0835 28.8819 21.6263 28.12 21.6263H28.1317Z" fill="black"/>
</svg>
