<svg width="18" height="32" viewBox="0 0 18 32" fill="none" xmlns="http://www.w3.org/2000/svg">
<path id="Vector" d="M9 4C7.34375 4 6 5.34375 6 7V17.2812C6 18.3625 5.55625 19.275 5.04375 19.9375C4.3875 20.7875 4 21.8437 4 23C4 25.7625 6.2375 28 9 28C11.7625 28 14 25.7625 14 23C14 21.8437 13.6125 20.7875 12.9563 19.9437C12.4438 19.2812 12 18.3687 12 17.2875V7C12 5.34375 10.6562 4 9 4ZM2 7C2 3.1375 5.13125 0 9 0C12.8688 0 16 3.13125 16 7V17.2812C16 17.2875 16.0063 17.3 16.0125 17.3187C16.025 17.3562 16.0625 17.4187 16.1187 17.4937C17.3 19.0187 18 20.9312 18 23C18 27.9687 13.9688 32 9 32C4.03125 32 0 27.9687 0 23C0 20.925 0.7 19.0125 1.88125 17.4937C1.9375 17.4187 1.975 17.3562 1.9875 17.3187C1.99375 17.3 2 17.2875 2 17.2812V7ZM12 23C12 24.6562 10.6562 26 9 26C7.34375 26 6 24.6562 6 23C6 21.6937 6.8375 20.5812 8 20.1687V13C8 12.45 8.45 12 9 12C9.55 12 10 12.45 10 13V20.1687C11.1625 20.5812 12 21.6937 12 23Z" fill="black"/>
</svg>
