<svg width="21" height="21" viewBox="0 0 21 21" fill="none" xmlns="http://www.w3.org/2000/svg">
<path id="Vector" d="M1.30115 0.238708C1.23249 0.165021 1.14969 0.105919 1.05769 0.0649274C0.965688 0.0239354 0.866375 0.00189351 0.765672 0.000116722C0.664969 -0.00166006 0.56494 0.0168645 0.471552 0.0545855C0.378164 0.0923065 0.29333 0.148451 0.222111 0.21967C0.150892 0.290889 0.0947479 0.375723 0.0570269 0.469111C0.0193059 0.562499 0.000781344 0.662528 0.00255813 0.763231C0.00433491 0.863934 0.0263768 0.963247 0.0673688 1.05525C0.108361 1.14725 0.167463 1.23005 0.24115 1.29871L1.49115 2.54871C1.08558 2.81404 0.744508 3.16674 0.492921 3.58098C0.241335 3.99521 0.0856077 4.46049 0.0371497 4.94271L8.11515 9.17371L10.5371 11.5947L10.3691 11.6827C10.2618 11.739 10.1424 11.7683 10.0211 11.7683C9.89993 11.7683 9.78053 11.739 9.67315 11.6827L0.0211497 6.62671V14.7687L0.0261498 14.9527C0.0731483 15.7815 0.435516 16.5609 1.03892 17.131C1.64232 17.7012 2.44101 18.0188 3.27115 18.0187H16.7712L16.9552 18.0137L18.7402 19.7987C18.8815 19.9354 19.071 20.0111 19.2676 20.0095C19.4643 20.0079 19.6524 19.9291 19.7915 19.7901C19.9306 19.6511 20.0096 19.463 20.0114 19.2664C20.0132 19.0697 19.9377 18.8802 19.8012 18.7387L1.30115 0.238708ZM13.3211 10.1367L19.5832 16.3987C19.8707 15.9036 20.0218 15.3412 20.0212 14.7687V6.62671L13.3211 10.1367ZM5.20315 2.01871L12.2101 9.02571L20.0051 4.94271C19.9243 4.14119 19.5487 3.39825 18.9512 2.85798C18.3536 2.3177 17.5767 2.01861 16.7712 2.01871H5.20315Z" fill="white"/>
</svg>
